<svg width="173" height="57" viewBox="0 0 173 57" fill="none" xmlns="http://www.w3.org/2000/svg">
<path d="M52.7617 37.272H59.1707C61.3394 37.272 65.2119 37.272 67.729 40.8732C69.0651 42.7125 69.5104 44.7648 69.5104 46.8946C69.5104 52.1802 66.8964 56.614 59.5386 56.614H52.7617V37.272ZM57.6992 52.277H59.8097C63.4886 52.277 64.5342 49.7213 64.5342 46.972C64.5342 45.8684 64.3018 44.4938 63.5854 43.3902C63.0045 42.5189 62.0171 41.6089 59.8291 41.6089H57.6798V52.277H57.6992Z" fill="#2D2E2C"/>
<path d="M82.1406 37.272H87.0781V56.614H82.1406V37.272Z" fill="#2D2E2C"/>
<path d="M100.277 37.272H106.609C110.191 37.272 111.527 37.8141 112.573 38.6854C114.083 39.9438 114.857 41.8413 114.857 43.8161C114.857 45.7716 114.044 47.8433 112.824 48.8888C111.488 50.0118 110.191 50.5539 107.17 50.5539H105.021V56.614H100.297V37.272H100.277ZM105.002 46.2169H107.016C107.964 46.2169 110.094 46.2169 110.094 43.8936C110.094 41.6089 107.906 41.6089 106.822 41.6089H104.982V46.2169H105.002Z" fill="#2D2E2C"/>
<path d="M126.613 37.272H132.732C136.14 37.272 137.437 37.6979 138.695 38.666C140.283 39.9245 141.077 41.9574 141.077 43.9517C141.077 46.1782 139.935 49.4503 136.256 50.0505L141.503 56.6334H135.849L131.376 50.3796H131.318V56.6334H126.594V37.272H126.613ZM131.338 46.9914H133.08C135.985 46.9914 136.314 45.1521 136.314 44.2227C136.314 42.4802 135.036 41.6089 133.119 41.6089H131.318V46.9914H131.338Z" fill="#2D2E2C"/>
<path d="M162.743 36.9028C168.707 36.9028 172.967 41.5496 172.967 46.9514C172.967 52.3532 168.726 57 162.724 57C156.625 57 152.559 52.1596 152.559 47.2031C152.559 45.9252 152.733 44.4925 153.314 43.0791C154.321 40.5234 157.341 36.9028 162.743 36.9028ZM162.821 52.6436C166.325 52.6436 168.029 49.449 168.029 46.9708C168.029 44.4538 166.325 41.2398 162.782 41.2398C159.355 41.2398 157.496 44.1634 157.496 46.8933C157.496 49.875 159.51 52.6436 162.821 52.6436Z" fill="#2D2E2C"/>
<path d="M32.3586 39.748L25.0977 56.6505H25.9302C26.0658 56.6505 26.2013 56.6312 26.3369 56.6312L32.3393 42.6523V39.748H32.3586Z" fill="#2C5C7D"/>
<path d="M32.3332 50.2393C32.3332 50.2005 32.3525 50.1812 32.3525 50.1425V50.0457L30.2227 55.0022C31.5199 53.8211 32.3332 52.1367 32.3332 50.2393Z" fill="#2C5C7D"/>
<path d="M24.7461 19.9394L32.3556 2.22372V0.306947C32.3556 0.152056 32.2394 0.0358887 32.0845 0.0358887H32.0458L24.7461 17.0158V19.9394Z" fill="#2C5C7D"/>
<path d="M27.5535 0.0559082H24.9976C24.8427 0.0559082 24.7266 0.172081 24.7266 0.326972V6.61942V9.52362L28.7927 0.0559082H27.5535Z" fill="#2C5C7D"/>
<path d="M22.8639 31.6162L15.3125 49.1576H16.5711L24.1031 31.6162H22.8639Z" fill="#2C5C7D"/>
<path d="M22.8672 31.6164L15.3158 49.1578L12.1016 56.6507H13.3408L16.5743 49.1578L24.1064 31.6164L32.3549 12.4486V9.54443L22.8672 31.6164Z" fill="#2C5C7D"/>
<path d="M24.7447 37.324L19.6523 49.1538H20.8916L24.7447 40.2282V37.324Z" fill="#2C5C7D"/>
<path d="M24.7478 37.3258L19.6554 49.1556L16.4219 56.6484H17.6804L20.8946 49.1556L24.7478 40.23L32.3573 22.5143V19.6101L24.7478 37.3258Z" fill="#2C5C7D"/>
<path d="M24.7472 49.1555V47.3936L23.9727 49.1555H24.7472Z" fill="#2C5C7D"/>
<path d="M24.7426 47.3949L23.9681 49.1568L20.7539 56.6496H21.9931L32.3521 32.5834V29.6792L24.7426 47.3949Z" fill="#2C5C7D"/>
<path d="M18.4772 31.6162L10.9258 49.1576H12.1844L19.7164 31.6162H18.4772Z" fill="#2C5C7D"/>
<path d="M21.59 24.3708L18.4726 31.612L10.9212 49.1534L7.70703 56.6463H8.94624L12.1798 49.1534L19.7119 31.612L22.8292 24.3708H21.59Z" fill="#2C5C7D"/>
<path d="M13.9953 31.6162L7.17969 47.4345V49.1576H7.68312L15.2345 31.6162H13.9953Z" fill="#2C5C7D"/>
<path d="M17.0972 24.3708H6.40903C2.86567 24.3708 0 27.2363 0 30.7795V50.2376C0 52.7353 1.43283 54.8844 3.524 55.9493C3.85316 56.1235 4.22105 56.259 4.58894 56.3752L7.70632 49.1534L15.2577 31.612L18.3751 24.3708H17.0972ZM7.18353 47.4303V31.5926H13.9798L7.18353 47.4303Z" fill="#2C5C7D"/>
<path d="M36.7344 16.9025L43.9954 0H43.1628C43.0272 0 42.8917 0.0193626 42.7561 0.0193626L36.7537 13.9983V16.9025H36.7344Z" fill="#33A7BF"/>
<path d="M36.7537 6.40882C36.7537 6.44754 36.7344 6.46691 36.7344 6.50563V6.6218L38.8643 1.66528C37.567 2.82697 36.7537 4.53077 36.7537 6.40882Z" fill="#33A7BF"/>
<path d="M44.3439 36.7278L36.7344 54.4435V56.3602C36.7344 56.5151 36.8505 56.6313 37.0055 56.6313H37.0442L44.3439 39.6513V36.7278Z" fill="#33A7BF"/>
<path d="M41.5205 56.6137H44.0763C44.2312 56.6137 44.3474 56.4975 44.3474 56.3427V50.0502V47.146L40.2812 56.6137H41.5205Z" fill="#33A7BF"/>
<path d="M46.2197 25.0515L53.7711 7.49072H52.5125L44.9805 25.0515H46.2197Z" fill="#33A7BF"/>
<path d="M46.2221 25.0536L53.7735 7.49286L56.9877 0H55.7485L52.5149 7.49286L44.9829 25.0536L36.7344 44.2214V47.1062L46.2221 25.0536Z" fill="#33A7BF"/>
<path d="M44.3477 19.3205L49.44 7.49072H48.1815L44.3477 16.4357V19.3205Z" fill="#33A7BF"/>
<path d="M44.3439 19.3227L49.4363 7.49286L52.6504 0H51.4112L48.1777 7.49286L44.3439 16.4378L36.7344 34.1341V37.0383L44.3439 19.3227Z" fill="#33A7BF"/>
<path d="M44.3477 7.49072V9.2526L45.1028 7.49072H44.3477Z" fill="#33A7BF"/>
<path d="M44.3439 9.25474L45.099 7.49286L48.3326 0H47.074L36.7344 24.0662V26.9704L44.3439 9.25474Z" fill="#33A7BF"/>
<path d="M50.6258 25.0515L58.1578 7.49072H56.9186L49.3672 25.0515H50.6258Z" fill="#33A7BF"/>
<path d="M47.5009 32.2754L50.6183 25.0536L58.1504 7.49286L61.3839 0H60.1254L56.9112 7.49286L49.3597 25.0536L46.2617 32.2754H47.5009Z" fill="#33A7BF"/>
<path d="M55.0908 25.0515L61.9064 9.21388V7.49072H61.3836L53.8516 25.0515H55.0908Z" fill="#33A7BF"/>
<path d="M51.9732 32.2763H62.6614C66.2048 32.2763 69.0704 29.4109 69.0704 25.8677V6.40953C69.0704 3.91191 67.6376 1.7628 65.5464 0.697925C65.2173 0.523673 64.8494 0.388141 64.4815 0.271973L61.3641 7.49377L53.8127 25.0352L50.6953 32.2763H51.9732ZM61.9063 9.21693V25.0545H55.11L61.9063 9.21693Z" fill="#33A7BF"/>
</svg>
